<mxfile host="app.diagrams.net" agent="Mozilla/5.0 (Windows NT 10.0; Win64; x64) AppleWebKit/537.36 (KHTML, like Gecko) Chrome/132.0.0.0 Safari/537.36 Edg/132.0.0.0" version="26.0.11">
  <diagram name="Page-1" id="0HjPFxw8xE3lsjzx_2N2">
    <mxGraphModel dx="1844" dy="833" grid="1" gridSize="10" guides="1" tooltips="1" connect="1" arrows="1" fold="1" page="0" pageScale="1" pageWidth="850" pageHeight="1100" math="0" shadow="0">
      <root>
        <mxCell id="0" />
        <mxCell id="1" parent="0" />
        <mxCell id="S5uqu81TDJNnixgwi5tN-1" value="User" style="swimlane;fontStyle=1;align=center;verticalAlign=top;childLayout=stackLayout;horizontal=1;startSize=26;horizontalStack=0;resizeParent=1;resizeLast=0;collapsible=1;marginBottom=0;rounded=0;shadow=0;strokeWidth=1;fillColor=#FFB570;strokeColor=#d79b00;swimlaneFillColor=#FFE6CC;" parent="1" vertex="1">
          <mxGeometry x="151" y="140" width="170" height="216" as="geometry">
            <mxRectangle x="220" y="140" width="160" height="26" as="alternateBounds" />
          </mxGeometry>
        </mxCell>
        <mxCell id="S5uqu81TDJNnixgwi5tN-2" value="Username: Immutable string" style="text;align=left;verticalAlign=top;spacingLeft=4;spacingRight=4;overflow=hidden;rotatable=0;points=[[0,0.5],[1,0.5]];portConstraint=eastwest;fontStyle=0" parent="S5uqu81TDJNnixgwi5tN-1" vertex="1">
          <mxGeometry y="26" width="170" height="26" as="geometry" />
        </mxCell>
        <mxCell id="S5uqu81TDJNnixgwi5tN-3" value="Phone Number: String" style="text;align=left;verticalAlign=top;spacingLeft=4;spacingRight=4;overflow=hidden;rotatable=0;points=[[0,0.5],[1,0.5]];portConstraint=eastwest;rounded=0;shadow=0;html=0;" parent="S5uqu81TDJNnixgwi5tN-1" vertex="1">
          <mxGeometry y="52" width="170" height="26" as="geometry" />
        </mxCell>
        <mxCell id="S5uqu81TDJNnixgwi5tN-4" value="Email Address: String&#xa;" style="text;align=left;verticalAlign=top;spacingLeft=4;spacingRight=4;overflow=hidden;rotatable=0;points=[[0,0.5],[1,0.5]];portConstraint=eastwest;rounded=0;shadow=0;html=0;" parent="S5uqu81TDJNnixgwi5tN-1" vertex="1">
          <mxGeometry y="78" width="170" height="26" as="geometry" />
        </mxCell>
        <mxCell id="S5uqu81TDJNnixgwi5tN-5" value="Picture: Blob" style="text;align=left;verticalAlign=top;spacingLeft=4;spacingRight=4;overflow=hidden;rotatable=0;points=[[0,0.5],[1,0.5]];portConstraint=eastwest;rounded=0;shadow=0;html=0;" parent="S5uqu81TDJNnixgwi5tN-1" vertex="1">
          <mxGeometry y="104" width="170" height="26" as="geometry" />
        </mxCell>
        <mxCell id="S5uqu81TDJNnixgwi5tN-6" value="Residence: String" style="text;align=left;verticalAlign=top;spacingLeft=4;spacingRight=4;overflow=hidden;rotatable=0;points=[[0,0.5],[1,0.5]];portConstraint=eastwest;rounded=0;shadow=0;html=0;" parent="S5uqu81TDJNnixgwi5tN-1" vertex="1">
          <mxGeometry y="130" width="170" height="26" as="geometry" />
        </mxCell>
        <mxCell id="S5uqu81TDJNnixgwi5tN-7" value="Role: Enum" style="text;align=left;verticalAlign=top;spacingLeft=4;spacingRight=4;overflow=hidden;rotatable=0;points=[[0,0.5],[1,0.5]];portConstraint=eastwest;rounded=0;shadow=0;html=0;" parent="S5uqu81TDJNnixgwi5tN-1" vertex="1">
          <mxGeometry y="156" width="170" height="26" as="geometry" />
        </mxCell>
        <mxCell id="S5uqu81TDJNnixgwi5tN-8" value="" style="line;html=1;strokeWidth=1;align=left;verticalAlign=middle;spacingTop=-1;spacingLeft=3;spacingRight=3;rotatable=0;labelPosition=right;points=[];portConstraint=eastwest;" parent="S5uqu81TDJNnixgwi5tN-1" vertex="1">
          <mxGeometry y="182" width="170" height="8" as="geometry" />
        </mxCell>
        <mxCell id="S5uqu81TDJNnixgwi5tN-9" value="UpdateProfile()" style="text;align=left;verticalAlign=top;spacingLeft=4;spacingRight=4;overflow=hidden;rotatable=0;points=[[0,0.5],[1,0.5]];portConstraint=eastwest;fontFamily=Consolas;fontStyle=1" parent="S5uqu81TDJNnixgwi5tN-1" vertex="1">
          <mxGeometry y="190" width="170" height="26" as="geometry" />
        </mxCell>
        <mxCell id="S5uqu81TDJNnixgwi5tN-10" value="Lost Item Post" style="swimlane;fontStyle=1;align=center;verticalAlign=top;childLayout=stackLayout;horizontal=1;startSize=26;horizontalStack=0;resizeParent=1;resizeLast=0;collapsible=1;marginBottom=0;rounded=0;shadow=0;strokeWidth=1;fillColor=#9673A6;strokeColor=#9673a6;swimlaneFillColor=#E1D5E7;" parent="1" vertex="1">
          <mxGeometry x="404" y="506" width="160" height="86" as="geometry">
            <mxRectangle x="130" y="380" width="160" height="26" as="alternateBounds" />
          </mxGeometry>
        </mxCell>
        <mxCell id="S5uqu81TDJNnixgwi5tN-11" value="Finder: List of strings" style="text;align=left;verticalAlign=top;spacingLeft=4;spacingRight=4;overflow=hidden;rotatable=0;points=[[0,0.5],[1,0.5]];portConstraint=eastwest;" parent="S5uqu81TDJNnixgwi5tN-10" vertex="1">
          <mxGeometry y="26" width="160" height="26" as="geometry" />
        </mxCell>
        <mxCell id="S5uqu81TDJNnixgwi5tN-12" value="" style="line;html=1;strokeWidth=1;align=left;verticalAlign=middle;spacingTop=-1;spacingLeft=3;spacingRight=3;rotatable=0;labelPosition=right;points=[];portConstraint=eastwest;" parent="S5uqu81TDJNnixgwi5tN-10" vertex="1">
          <mxGeometry y="52" width="160" height="8" as="geometry" />
        </mxCell>
        <mxCell id="S5uqu81TDJNnixgwi5tN-13" value="Delete()" style="text;align=left;verticalAlign=top;spacingLeft=4;spacingRight=4;overflow=hidden;rotatable=0;points=[[0,0.5],[1,0.5]];portConstraint=eastwest;fontStyle=1;fontFamily=Consolas;" parent="S5uqu81TDJNnixgwi5tN-10" vertex="1">
          <mxGeometry y="60" width="160" height="26" as="geometry" />
        </mxCell>
        <mxCell id="S5uqu81TDJNnixgwi5tN-14" value="Found Item Post" style="swimlane;fontStyle=1;align=center;verticalAlign=top;childLayout=stackLayout;horizontal=1;startSize=26;horizontalStack=0;resizeParent=1;resizeLast=0;collapsible=1;marginBottom=0;rounded=0;shadow=0;strokeWidth=1;fillColor=#9673A6;strokeColor=#9673a6;swimlaneFillColor=#E1D5E7;" parent="1" vertex="1">
          <mxGeometry x="615" y="506" width="160" height="60" as="geometry">
            <mxRectangle x="340" y="380" width="170" height="26" as="alternateBounds" />
          </mxGeometry>
        </mxCell>
        <mxCell id="S5uqu81TDJNnixgwi5tN-15" value="Claimant: List of strings" style="text;align=left;verticalAlign=top;spacingLeft=4;spacingRight=4;overflow=hidden;rotatable=0;points=[[0,0.5],[1,0.5]];portConstraint=eastwest;" parent="S5uqu81TDJNnixgwi5tN-14" vertex="1">
          <mxGeometry y="26" width="160" height="26" as="geometry" />
        </mxCell>
        <mxCell id="S5uqu81TDJNnixgwi5tN-16" value="" style="line;html=1;strokeWidth=1;align=left;verticalAlign=middle;spacingTop=-1;spacingLeft=3;spacingRight=3;rotatable=0;labelPosition=right;points=[];portConstraint=eastwest;" parent="S5uqu81TDJNnixgwi5tN-14" vertex="1">
          <mxGeometry y="52" width="160" height="8" as="geometry" />
        </mxCell>
        <mxCell id="S5uqu81TDJNnixgwi5tN-17" style="edgeStyle=orthogonalEdgeStyle;rounded=1;orthogonalLoop=1;jettySize=auto;html=1;entryX=0.5;entryY=0;entryDx=0;entryDy=0;endArrow=none;endFill=0;startFill=0;startArrow=block;startSize=10;curved=0;" parent="1" source="S5uqu81TDJNnixgwi5tN-19" target="S5uqu81TDJNnixgwi5tN-14" edge="1">
          <mxGeometry relative="1" as="geometry">
            <Array as="points">
              <mxPoint x="588" y="470" />
              <mxPoint x="695" y="470" />
            </Array>
          </mxGeometry>
        </mxCell>
        <mxCell id="S5uqu81TDJNnixgwi5tN-18" style="edgeStyle=orthogonalEdgeStyle;rounded=1;orthogonalLoop=1;jettySize=auto;html=1;entryX=0.5;entryY=0;entryDx=0;entryDy=0;endArrow=none;startFill=0;startArrow=block;startSize=10;curved=0;" parent="1" source="S5uqu81TDJNnixgwi5tN-19" target="S5uqu81TDJNnixgwi5tN-10" edge="1">
          <mxGeometry relative="1" as="geometry">
            <Array as="points">
              <mxPoint x="588" y="470" />
              <mxPoint x="484" y="470" />
            </Array>
          </mxGeometry>
        </mxCell>
        <mxCell id="S5uqu81TDJNnixgwi5tN-19" value="Post" style="swimlane;fontStyle=1;align=center;verticalAlign=top;childLayout=stackLayout;horizontal=1;startSize=26;horizontalStack=0;resizeParent=1;resizeLast=0;collapsible=1;marginBottom=0;rounded=0;shadow=0;strokeWidth=1;fillColor=#0E8088;strokeColor=#0e8088;swimlaneFillColor=#B0E3E6;" parent="1" vertex="1">
          <mxGeometry x="508" y="81" width="160" height="346" as="geometry">
            <mxRectangle x="508" y="81" width="160" height="26" as="alternateBounds" />
          </mxGeometry>
        </mxCell>
        <mxCell id="S5uqu81TDJNnixgwi5tN-20" value="Creator: Immutable string" style="text;align=left;verticalAlign=top;spacingLeft=4;spacingRight=4;overflow=hidden;rotatable=0;points=[[0,0.5],[1,0.5]];portConstraint=eastwest;" parent="S5uqu81TDJNnixgwi5tN-19" vertex="1">
          <mxGeometry y="26" width="160" height="26" as="geometry" />
        </mxCell>
        <mxCell id="S5uqu81TDJNnixgwi5tN-21" value="ID: Immutable integer" style="text;align=left;verticalAlign=top;spacingLeft=4;spacingRight=4;overflow=hidden;rotatable=0;points=[[0,0.5],[1,0.5]];portConstraint=eastwest;rounded=0;shadow=0;html=0;" parent="S5uqu81TDJNnixgwi5tN-19" vertex="1">
          <mxGeometry y="52" width="160" height="26" as="geometry" />
        </mxCell>
        <mxCell id="S5uqu81TDJNnixgwi5tN-22" value="Title: String" style="text;align=left;verticalAlign=top;spacingLeft=4;spacingRight=4;overflow=hidden;rotatable=0;points=[[0,0.5],[1,0.5]];portConstraint=eastwest;rounded=0;shadow=0;html=0;" parent="S5uqu81TDJNnixgwi5tN-19" vertex="1">
          <mxGeometry y="78" width="160" height="26" as="geometry" />
        </mxCell>
        <mxCell id="S5uqu81TDJNnixgwi5tN-23" value="Description: String" style="text;align=left;verticalAlign=top;spacingLeft=4;spacingRight=4;overflow=hidden;rotatable=0;points=[[0,0.5],[1,0.5]];portConstraint=eastwest;rounded=0;shadow=0;html=0;" parent="S5uqu81TDJNnixgwi5tN-19" vertex="1">
          <mxGeometry y="104" width="160" height="26" as="geometry" />
        </mxCell>
        <mxCell id="S5uqu81TDJNnixgwi5tN-24" value="Details: JSON" style="text;align=left;verticalAlign=top;spacingLeft=4;spacingRight=4;overflow=hidden;rotatable=0;points=[[0,0.5],[1,0.5]];portConstraint=eastwest;rounded=0;shadow=0;html=0;" parent="S5uqu81TDJNnixgwi5tN-19" vertex="1">
          <mxGeometry y="130" width="160" height="26" as="geometry" />
        </mxCell>
        <mxCell id="S5uqu81TDJNnixgwi5tN-50" value="Active Status: Boolean" style="text;align=left;verticalAlign=top;spacingLeft=4;spacingRight=4;overflow=hidden;rotatable=0;points=[[0,0.5],[1,0.5]];portConstraint=eastwest;rounded=0;shadow=0;html=0;" parent="S5uqu81TDJNnixgwi5tN-19" vertex="1">
          <mxGeometry y="156" width="160" height="26" as="geometry" />
        </mxCell>
        <mxCell id="S5uqu81TDJNnixgwi5tN-25" value="" style="line;html=1;strokeWidth=1;align=left;verticalAlign=middle;spacingTop=-1;spacingLeft=3;spacingRight=3;rotatable=0;labelPosition=right;points=[];portConstraint=eastwest;" parent="S5uqu81TDJNnixgwi5tN-19" vertex="1">
          <mxGeometry y="182" width="160" height="8" as="geometry" />
        </mxCell>
        <mxCell id="S5uqu81TDJNnixgwi5tN-26" value="OpenChat()" style="text;align=left;verticalAlign=top;spacingLeft=4;spacingRight=4;overflow=hidden;rotatable=0;points=[[0,0.5],[1,0.5]];portConstraint=eastwest;fontFamily=Consolas;fontStyle=1" parent="S5uqu81TDJNnixgwi5tN-19" vertex="1">
          <mxGeometry y="190" width="160" height="26" as="geometry" />
        </mxCell>
        <mxCell id="S5uqu81TDJNnixgwi5tN-27" value="Flag()" style="text;align=left;verticalAlign=top;spacingLeft=4;spacingRight=4;overflow=hidden;rotatable=0;points=[[0,0.5],[1,0.5]];portConstraint=eastwest;fontStyle=1;fontFamily=Consolas;" parent="S5uqu81TDJNnixgwi5tN-19" vertex="1">
          <mxGeometry y="216" width="160" height="26" as="geometry" />
        </mxCell>
        <mxCell id="S5uqu81TDJNnixgwi5tN-28" value="ForceDelete()" style="text;align=left;verticalAlign=top;spacingLeft=4;spacingRight=4;overflow=hidden;rotatable=0;points=[[0,0.5],[1,0.5]];portConstraint=eastwest;fontStyle=1;fontFamily=Consolas;" parent="S5uqu81TDJNnixgwi5tN-19" vertex="1">
          <mxGeometry y="242" width="160" height="26" as="geometry" />
        </mxCell>
        <mxCell id="S5uqu81TDJNnixgwi5tN-29" value="Close()" style="text;align=left;verticalAlign=top;spacingLeft=4;spacingRight=4;overflow=hidden;rotatable=0;points=[[0,0.5],[1,0.5]];portConstraint=eastwest;fontStyle=1;fontFamily=Consolas;" parent="S5uqu81TDJNnixgwi5tN-19" vertex="1">
          <mxGeometry y="268" width="160" height="26" as="geometry" />
        </mxCell>
        <mxCell id="S5uqu81TDJNnixgwi5tN-30" value="ConfirmReceipt()" style="text;align=left;verticalAlign=top;spacingLeft=4;spacingRight=4;overflow=hidden;rotatable=0;points=[[0,0.5],[1,0.5]];portConstraint=eastwest;fontStyle=1;fontFamily=Consolas;" parent="S5uqu81TDJNnixgwi5tN-19" vertex="1">
          <mxGeometry y="294" width="160" height="26" as="geometry" />
        </mxCell>
        <mxCell id="S5uqu81TDJNnixgwi5tN-31" value="ConfirmReturn()" style="text;align=left;verticalAlign=top;spacingLeft=4;spacingRight=4;overflow=hidden;rotatable=0;points=[[0,0.5],[1,0.5]];portConstraint=eastwest;fontStyle=1;fontFamily=Consolas;" parent="S5uqu81TDJNnixgwi5tN-19" vertex="1">
          <mxGeometry y="320" width="160" height="26" as="geometry" />
        </mxCell>
        <mxCell id="S5uqu81TDJNnixgwi5tN-32" value="" style="endArrow=none;shadow=0;strokeWidth=1;rounded=0;curved=0;endFill=1;edgeStyle=elbowEdgeStyle;elbow=vertical;startArrow=open;startFill=0;verticalAlign=bottom;" parent="1" source="S5uqu81TDJNnixgwi5tN-1" target="S5uqu81TDJNnixgwi5tN-19" edge="1">
          <mxGeometry x="0.5" y="41" relative="1" as="geometry">
            <mxPoint x="380" y="192" as="sourcePoint" />
            <mxPoint x="540" y="192" as="targetPoint" />
            <mxPoint x="-40" y="32" as="offset" />
          </mxGeometry>
        </mxCell>
        <mxCell id="S5uqu81TDJNnixgwi5tN-33" value="  1" style="resizable=0;align=left;verticalAlign=bottom;labelBackgroundColor=none;fontSize=12;" parent="S5uqu81TDJNnixgwi5tN-32" connectable="0" vertex="1">
          <mxGeometry x="-1" relative="1" as="geometry">
            <mxPoint as="offset" />
          </mxGeometry>
        </mxCell>
        <mxCell id="S5uqu81TDJNnixgwi5tN-34" value="0..*" style="resizable=0;align=right;verticalAlign=bottom;labelBackgroundColor=none;fontSize=12;" parent="S5uqu81TDJNnixgwi5tN-32" connectable="0" vertex="1">
          <mxGeometry x="1" relative="1" as="geometry">
            <mxPoint x="-4" as="offset" />
          </mxGeometry>
        </mxCell>
        <mxCell id="S5uqu81TDJNnixgwi5tN-35" value="&lt;font style=&quot;font-size: 11px;&quot;&gt;posts&lt;/font&gt;" style="text;html=1;resizable=0;points=[];;align=center;verticalAlign=middle;labelBackgroundColor=none;rounded=0;shadow=0;strokeWidth=1;fontSize=12;" parent="S5uqu81TDJNnixgwi5tN-32" vertex="1" connectable="0">
          <mxGeometry x="0.5" y="49" relative="1" as="geometry">
            <mxPoint x="-47" y="40" as="offset" />
          </mxGeometry>
        </mxCell>
        <mxCell id="S5uqu81TDJNnixgwi5tN-36" value="+ Poster" style="edgeLabel;html=1;align=left;verticalAlign=middle;resizable=0;points=[];" parent="S5uqu81TDJNnixgwi5tN-32" vertex="1" connectable="0">
          <mxGeometry x="-0.8163" y="2" relative="1" as="geometry">
            <mxPoint x="-8" y="14" as="offset" />
          </mxGeometry>
        </mxCell>
        <mxCell id="S5uqu81TDJNnixgwi5tN-37" value="+ Post" style="edgeLabel;html=1;align=right;verticalAlign=middle;resizable=0;points=[];" parent="S5uqu81TDJNnixgwi5tN-32" vertex="1" connectable="0">
          <mxGeometry x="0.9028" y="-1" relative="1" as="geometry">
            <mxPoint x="1" y="11" as="offset" />
          </mxGeometry>
        </mxCell>
        <mxCell id="S5uqu81TDJNnixgwi5tN-38" value="" style="endArrow=none;shadow=0;strokeWidth=1;rounded=1;curved=0;endFill=1;edgeStyle=elbowEdgeStyle;elbow=vertical;startArrow=open;startFill=0;exitX=0.356;exitY=1.012;exitDx=0;exitDy=0;entryX=0;entryY=0.5;entryDx=0;entryDy=0;exitPerimeter=0;" parent="1" source="S5uqu81TDJNnixgwi5tN-9" target="S5uqu81TDJNnixgwi5tN-11" edge="1">
          <mxGeometry x="0.5" y="41" relative="1" as="geometry">
            <mxPoint x="360" y="410" as="sourcePoint" />
            <mxPoint x="488" y="410" as="targetPoint" />
            <mxPoint x="-40" y="32" as="offset" />
            <Array as="points">
              <mxPoint x="230" y="545" />
            </Array>
          </mxGeometry>
        </mxCell>
        <mxCell id="S5uqu81TDJNnixgwi5tN-39" value="  0..*" style="resizable=0;align=left;verticalAlign=bottom;labelBackgroundColor=none;fontSize=12;" parent="S5uqu81TDJNnixgwi5tN-38" connectable="0" vertex="1">
          <mxGeometry x="-1" relative="1" as="geometry">
            <mxPoint x="-3" y="24" as="offset" />
          </mxGeometry>
        </mxCell>
        <mxCell id="S5uqu81TDJNnixgwi5tN-40" value="0..*" style="resizable=0;align=right;verticalAlign=bottom;labelBackgroundColor=none;fontSize=12;" parent="S5uqu81TDJNnixgwi5tN-38" connectable="0" vertex="1">
          <mxGeometry x="1" relative="1" as="geometry">
            <mxPoint x="-4" as="offset" />
          </mxGeometry>
        </mxCell>
        <mxCell id="S5uqu81TDJNnixgwi5tN-41" value="&lt;font style=&quot;font-size: 11px;&quot;&gt;+ Item&lt;/font&gt;" style="text;html=1;resizable=0;points=[];;align=center;verticalAlign=middle;labelBackgroundColor=none;rounded=0;shadow=0;strokeWidth=1;fontSize=12;" parent="S5uqu81TDJNnixgwi5tN-38" vertex="1" connectable="0">
          <mxGeometry x="0.5" y="49" relative="1" as="geometry">
            <mxPoint x="74" y="58" as="offset" />
          </mxGeometry>
        </mxCell>
        <mxCell id="S5uqu81TDJNnixgwi5tN-42" value="+ Finder" style="edgeLabel;html=1;align=center;verticalAlign=middle;resizable=0;points=[];" parent="S5uqu81TDJNnixgwi5tN-38" vertex="1" connectable="0">
          <mxGeometry x="-0.8159" y="1" relative="1" as="geometry">
            <mxPoint x="-29" y="-19" as="offset" />
          </mxGeometry>
        </mxCell>
        <mxCell id="S5uqu81TDJNnixgwi5tN-43" value="reports found" style="edgeLabel;html=1;align=center;verticalAlign=middle;resizable=0;points=[];" parent="S5uqu81TDJNnixgwi5tN-38" vertex="1" connectable="0">
          <mxGeometry x="0.0566" y="-1" relative="1" as="geometry">
            <mxPoint x="22" y="8" as="offset" />
          </mxGeometry>
        </mxCell>
        <mxCell id="S5uqu81TDJNnixgwi5tN-44" value="" style="endArrow=none;shadow=0;strokeWidth=1;rounded=1;curved=0;endFill=1;edgeStyle=elbowEdgeStyle;elbow=vertical;startArrow=open;startFill=0;exitX=0.838;exitY=1.069;exitDx=0;exitDy=0;exitPerimeter=0;jumpStyle=arc;entryX=0.25;entryY=0;entryDx=0;entryDy=0;" parent="1" source="S5uqu81TDJNnixgwi5tN-9" target="S5uqu81TDJNnixgwi5tN-14" edge="1">
          <mxGeometry x="0.5" y="41" relative="1" as="geometry">
            <mxPoint x="490" y="356" as="sourcePoint" />
            <mxPoint x="615" y="545" as="targetPoint" />
            <mxPoint x="-40" y="32" as="offset" />
            <Array as="points">
              <mxPoint x="470" y="480" />
            </Array>
          </mxGeometry>
        </mxCell>
        <mxCell id="S5uqu81TDJNnixgwi5tN-45" value="  0..*" style="resizable=0;align=left;verticalAlign=bottom;labelBackgroundColor=none;fontSize=12;" parent="S5uqu81TDJNnixgwi5tN-44" connectable="0" vertex="1">
          <mxGeometry x="-1" relative="1" as="geometry">
            <mxPoint x="-3" y="23" as="offset" />
          </mxGeometry>
        </mxCell>
        <mxCell id="S5uqu81TDJNnixgwi5tN-46" value="0..*" style="resizable=0;align=right;verticalAlign=bottom;labelBackgroundColor=none;fontSize=12;" parent="S5uqu81TDJNnixgwi5tN-44" connectable="0" vertex="1">
          <mxGeometry x="1" relative="1" as="geometry">
            <mxPoint x="-4" as="offset" />
          </mxGeometry>
        </mxCell>
        <mxCell id="S5uqu81TDJNnixgwi5tN-47" value="&lt;font style=&quot;font-size: 11px;&quot;&gt;+ Item&lt;/font&gt;" style="text;html=1;resizable=0;points=[];;align=center;verticalAlign=middle;labelBackgroundColor=none;rounded=0;shadow=0;strokeWidth=1;fontSize=12;" parent="S5uqu81TDJNnixgwi5tN-44" vertex="1" connectable="0">
          <mxGeometry x="0.5" y="49" relative="1" as="geometry">
            <mxPoint x="120" y="66" as="offset" />
          </mxGeometry>
        </mxCell>
        <mxCell id="S5uqu81TDJNnixgwi5tN-48" value="+ Claimant" style="edgeLabel;html=1;align=center;verticalAlign=middle;resizable=0;points=[];labelBackgroundColor=none;" parent="S5uqu81TDJNnixgwi5tN-44" vertex="1" connectable="0">
          <mxGeometry x="-0.8159" y="1" relative="1" as="geometry">
            <mxPoint x="-32" y="-33" as="offset" />
          </mxGeometry>
        </mxCell>
        <mxCell id="S5uqu81TDJNnixgwi5tN-49" value="claims ownership of" style="edgeLabel;html=1;align=center;verticalAlign=middle;resizable=0;points=[];labelBackgroundColor=none;" parent="S5uqu81TDJNnixgwi5tN-44" vertex="1" connectable="0">
          <mxGeometry x="0.0566" y="-1" relative="1" as="geometry">
            <mxPoint x="-90" y="-10" as="offset" />
          </mxGeometry>
        </mxCell>
        <mxCell id="S5uqu81TDJNnixgwi5tN-52" value="Chat" style="swimlane;fontStyle=1;align=center;verticalAlign=top;childLayout=stackLayout;horizontal=1;startSize=26;horizontalStack=0;resizeParent=1;resizeLast=0;collapsible=1;marginBottom=0;rounded=0;shadow=0;strokeWidth=1;fillColor=#10739E;strokeColor=#10739e;swimlaneFillColor=#B1DDF0;" parent="1" vertex="1">
          <mxGeometry x="856" y="81" width="160" height="269" as="geometry">
            <mxRectangle x="508" y="81" width="160" height="26" as="alternateBounds" />
          </mxGeometry>
        </mxCell>
        <mxCell id="S5uqu81TDJNnixgwi5tN-53" value="Entity 1: Immutable string" style="text;align=left;verticalAlign=top;spacingLeft=4;spacingRight=4;overflow=hidden;rotatable=0;points=[[0,0.5],[1,0.5]];portConstraint=eastwest;" parent="S5uqu81TDJNnixgwi5tN-52" vertex="1">
          <mxGeometry y="26" width="160" height="26" as="geometry" />
        </mxCell>
        <mxCell id="S5uqu81TDJNnixgwi5tN-54" value="Entity 2: Immutable string" style="text;align=left;verticalAlign=top;spacingLeft=4;spacingRight=4;overflow=hidden;rotatable=0;points=[[0,0.5],[1,0.5]];portConstraint=eastwest;rounded=0;shadow=0;html=0;" parent="S5uqu81TDJNnixgwi5tN-52" vertex="1">
          <mxGeometry y="52" width="160" height="26" as="geometry" />
        </mxCell>
        <mxCell id="S5uqu81TDJNnixgwi5tN-55" value="Post ID: Immutable integer" style="text;align=left;verticalAlign=top;spacingLeft=4;spacingRight=4;overflow=hidden;rotatable=0;points=[[0,0.5],[1,0.5]];portConstraint=eastwest;rounded=0;shadow=0;html=0;" parent="S5uqu81TDJNnixgwi5tN-52" vertex="1">
          <mxGeometry y="78" width="160" height="26" as="geometry" />
        </mxCell>
        <mxCell id="S5uqu81TDJNnixgwi5tN-56" value="Chats: JSON" style="text;align=left;verticalAlign=top;spacingLeft=4;spacingRight=4;overflow=hidden;rotatable=0;points=[[0,0.5],[1,0.5]];portConstraint=eastwest;rounded=0;shadow=0;html=0;" parent="S5uqu81TDJNnixgwi5tN-52" vertex="1">
          <mxGeometry y="104" width="160" height="26" as="geometry" />
        </mxCell>
        <mxCell id="S5uqu81TDJNnixgwi5tN-57" value="Active Status: Boolean" style="text;align=left;verticalAlign=top;spacingLeft=4;spacingRight=4;overflow=hidden;rotatable=0;points=[[0,0.5],[1,0.5]];portConstraint=eastwest;rounded=0;shadow=0;html=0;" parent="S5uqu81TDJNnixgwi5tN-52" vertex="1">
          <mxGeometry y="130" width="160" height="26" as="geometry" />
        </mxCell>
        <mxCell id="S5uqu81TDJNnixgwi5tN-59" value="" style="line;html=1;strokeWidth=1;align=left;verticalAlign=middle;spacingTop=-1;spacingLeft=3;spacingRight=3;rotatable=0;labelPosition=right;points=[];portConstraint=eastwest;" parent="S5uqu81TDJNnixgwi5tN-52" vertex="1">
          <mxGeometry y="156" width="160" height="8" as="geometry" />
        </mxCell>
        <mxCell id="S5uqu81TDJNnixgwi5tN-60" value="Send()" style="text;align=left;verticalAlign=top;spacingLeft=4;spacingRight=4;overflow=hidden;rotatable=0;points=[[0,0.5],[1,0.5]];portConstraint=eastwest;fontFamily=Consolas;fontStyle=1" parent="S5uqu81TDJNnixgwi5tN-52" vertex="1">
          <mxGeometry y="164" width="160" height="26" as="geometry" />
        </mxCell>
        <mxCell id="S5uqu81TDJNnixgwi5tN-61" value="Close()" style="text;align=left;verticalAlign=top;spacingLeft=4;spacingRight=4;overflow=hidden;rotatable=0;points=[[0,0.5],[1,0.5]];portConstraint=eastwest;fontStyle=1;fontFamily=Consolas;" parent="S5uqu81TDJNnixgwi5tN-52" vertex="1">
          <mxGeometry y="190" width="160" height="26" as="geometry" />
        </mxCell>
        <mxCell id="S5uqu81TDJNnixgwi5tN-62" value="Load()" style="text;align=left;verticalAlign=top;spacingLeft=4;spacingRight=4;overflow=hidden;rotatable=0;points=[[0,0.5],[1,0.5]];portConstraint=eastwest;fontStyle=1;fontFamily=Consolas;" parent="S5uqu81TDJNnixgwi5tN-52" vertex="1">
          <mxGeometry y="216" width="160" height="26" as="geometry" />
        </mxCell>
        <mxCell id="S5uqu81TDJNnixgwi5tN-63" value="GetPost()" style="text;align=left;verticalAlign=top;spacingLeft=4;spacingRight=4;overflow=hidden;rotatable=0;points=[[0,0.5],[1,0.5]];portConstraint=eastwest;fontStyle=1;fontFamily=Consolas;" parent="S5uqu81TDJNnixgwi5tN-52" vertex="1">
          <mxGeometry y="242" width="160" height="26" as="geometry" />
        </mxCell>
        <mxCell id="S5uqu81TDJNnixgwi5tN-66" value="" style="endArrow=none;shadow=0;strokeWidth=1;rounded=0;curved=0;endFill=1;edgeStyle=elbowEdgeStyle;elbow=vertical;startArrow=open;startFill=0;verticalAlign=bottom;exitX=1;exitY=0.5;exitDx=0;exitDy=0;entryX=0;entryY=0.5;entryDx=0;entryDy=0;" parent="1" source="S5uqu81TDJNnixgwi5tN-50" edge="1">
          <mxGeometry x="0.5" y="41" relative="1" as="geometry">
            <mxPoint x="680" y="250" as="sourcePoint" />
            <mxPoint x="856" y="250" as="targetPoint" />
            <mxPoint x="-40" y="32" as="offset" />
          </mxGeometry>
        </mxCell>
        <mxCell id="S5uqu81TDJNnixgwi5tN-67" value="  1" style="resizable=0;align=left;verticalAlign=bottom;labelBackgroundColor=none;fontSize=12;" parent="S5uqu81TDJNnixgwi5tN-66" connectable="0" vertex="1">
          <mxGeometry x="-1" relative="1" as="geometry">
            <mxPoint as="offset" />
          </mxGeometry>
        </mxCell>
        <mxCell id="S5uqu81TDJNnixgwi5tN-68" value="0..*" style="resizable=0;align=right;verticalAlign=bottom;labelBackgroundColor=none;fontSize=12;" parent="S5uqu81TDJNnixgwi5tN-66" connectable="0" vertex="1">
          <mxGeometry x="1" relative="1" as="geometry">
            <mxPoint x="-4" as="offset" />
          </mxGeometry>
        </mxCell>
        <mxCell id="S5uqu81TDJNnixgwi5tN-69" value="&lt;font style=&quot;font-size: 11px;&quot;&gt;relates to&lt;/font&gt;" style="text;html=1;resizable=0;points=[];;align=center;verticalAlign=middle;labelBackgroundColor=none;rounded=0;shadow=0;strokeWidth=1;fontSize=12;" parent="S5uqu81TDJNnixgwi5tN-66" vertex="1" connectable="0">
          <mxGeometry x="0.5" y="49" relative="1" as="geometry">
            <mxPoint x="-47" y="40" as="offset" />
          </mxGeometry>
        </mxCell>
        <mxCell id="S5uqu81TDJNnixgwi5tN-70" value="+ Post" style="edgeLabel;html=1;align=left;verticalAlign=middle;resizable=0;points=[];" parent="S5uqu81TDJNnixgwi5tN-66" vertex="1" connectable="0">
          <mxGeometry x="-0.8163" y="2" relative="1" as="geometry">
            <mxPoint x="-8" y="14" as="offset" />
          </mxGeometry>
        </mxCell>
        <mxCell id="S5uqu81TDJNnixgwi5tN-71" value="+ Chat" style="edgeLabel;html=1;align=right;verticalAlign=middle;resizable=0;points=[];" parent="S5uqu81TDJNnixgwi5tN-66" vertex="1" connectable="0">
          <mxGeometry x="0.9028" y="-1" relative="1" as="geometry">
            <mxPoint x="1" y="11" as="offset" />
          </mxGeometry>
        </mxCell>
        <mxCell id="S5uqu81TDJNnixgwi5tN-73" value="" style="endArrow=none;shadow=0;strokeWidth=1;rounded=1;curved=0;endFill=1;edgeStyle=elbowEdgeStyle;elbow=vertical;startArrow=open;startFill=0;verticalAlign=bottom;exitX=0.5;exitY=0;exitDx=0;exitDy=0;entryX=0.5;entryY=0;entryDx=0;entryDy=0;" parent="1" source="S5uqu81TDJNnixgwi5tN-1" target="S5uqu81TDJNnixgwi5tN-52" edge="1">
          <mxGeometry x="0.5" y="41" relative="1" as="geometry">
            <mxPoint x="668" y="40" as="sourcePoint" />
            <mxPoint x="856" y="40" as="targetPoint" />
            <mxPoint x="-40" y="32" as="offset" />
            <Array as="points">
              <mxPoint x="580" y="30" />
            </Array>
          </mxGeometry>
        </mxCell>
        <mxCell id="S5uqu81TDJNnixgwi5tN-74" value=" 2" style="resizable=0;align=left;verticalAlign=bottom;labelBackgroundColor=none;fontSize=12;" parent="S5uqu81TDJNnixgwi5tN-73" connectable="0" vertex="1">
          <mxGeometry x="-1" relative="1" as="geometry">
            <mxPoint y="-10" as="offset" />
          </mxGeometry>
        </mxCell>
        <mxCell id="S5uqu81TDJNnixgwi5tN-75" value="0..*" style="resizable=0;align=right;verticalAlign=bottom;labelBackgroundColor=none;fontSize=12;" parent="S5uqu81TDJNnixgwi5tN-73" connectable="0" vertex="1">
          <mxGeometry x="1" relative="1" as="geometry">
            <mxPoint x="-4" y="-1" as="offset" />
          </mxGeometry>
        </mxCell>
        <mxCell id="S5uqu81TDJNnixgwi5tN-76" value="&lt;font style=&quot;font-size: 11px;&quot;&gt;communicate through&lt;/font&gt;" style="text;html=1;resizable=0;points=[];;align=center;verticalAlign=middle;labelBackgroundColor=none;rounded=0;shadow=0;strokeWidth=1;fontSize=12;" parent="S5uqu81TDJNnixgwi5tN-73" vertex="1" connectable="0">
          <mxGeometry x="0.5" y="49" relative="1" as="geometry">
            <mxPoint x="-191" y="59" as="offset" />
          </mxGeometry>
        </mxCell>
        <mxCell id="S5uqu81TDJNnixgwi5tN-77" value="+ Users" style="edgeLabel;html=1;align=left;verticalAlign=middle;resizable=0;points=[];" parent="S5uqu81TDJNnixgwi5tN-73" vertex="1" connectable="0">
          <mxGeometry x="-0.8163" y="2" relative="1" as="geometry">
            <mxPoint x="-41" y="60" as="offset" />
          </mxGeometry>
        </mxCell>
        <mxCell id="S5uqu81TDJNnixgwi5tN-78" value="+ Chat" style="edgeLabel;html=1;align=right;verticalAlign=middle;resizable=0;points=[];" parent="S5uqu81TDJNnixgwi5tN-73" vertex="1" connectable="0">
          <mxGeometry x="0.9028" y="-1" relative="1" as="geometry">
            <mxPoint x="38" y="33" as="offset" />
          </mxGeometry>
        </mxCell>
        <mxCell id="S5uqu81TDJNnixgwi5tN-79" value="Support Ticket" style="swimlane;fontStyle=1;align=center;verticalAlign=top;childLayout=stackLayout;horizontal=1;startSize=26;horizontalStack=0;resizeParent=1;resizeLast=0;collapsible=1;marginBottom=0;rounded=0;shadow=0;strokeWidth=1;fillColor=#82B366;strokeColor=#82b366;swimlaneFillColor=#D5E8D4;" parent="1" vertex="1">
          <mxGeometry x="-60" y="442" width="170" height="216" as="geometry">
            <mxRectangle x="220" y="140" width="160" height="26" as="alternateBounds" />
          </mxGeometry>
        </mxCell>
        <mxCell id="S5uqu81TDJNnixgwi5tN-80" value="Creator: Immutable string" style="text;align=left;verticalAlign=top;spacingLeft=4;spacingRight=4;overflow=hidden;rotatable=0;points=[[0,0.5],[1,0.5]];portConstraint=eastwest;fontStyle=0" parent="S5uqu81TDJNnixgwi5tN-79" vertex="1">
          <mxGeometry y="26" width="170" height="26" as="geometry" />
        </mxCell>
        <mxCell id="S5uqu81TDJNnixgwi5tN-89" value="ID: Immutable integer" style="text;align=left;verticalAlign=top;spacingLeft=4;spacingRight=4;overflow=hidden;rotatable=0;points=[[0,0.5],[1,0.5]];portConstraint=eastwest;fontStyle=0" parent="S5uqu81TDJNnixgwi5tN-79" vertex="1">
          <mxGeometry y="52" width="170" height="26" as="geometry" />
        </mxCell>
        <mxCell id="S5uqu81TDJNnixgwi5tN-88" value="Title: Immutable string" style="text;align=left;verticalAlign=top;spacingLeft=4;spacingRight=4;overflow=hidden;rotatable=0;points=[[0,0.5],[1,0.5]];portConstraint=eastwest;fontStyle=0" parent="S5uqu81TDJNnixgwi5tN-79" vertex="1">
          <mxGeometry y="78" width="170" height="26" as="geometry" />
        </mxCell>
        <mxCell id="S5uqu81TDJNnixgwi5tN-81" value="Details: JSON" style="text;align=left;verticalAlign=top;spacingLeft=4;spacingRight=4;overflow=hidden;rotatable=0;points=[[0,0.5],[1,0.5]];portConstraint=eastwest;rounded=0;shadow=0;html=0;" parent="S5uqu81TDJNnixgwi5tN-79" vertex="1">
          <mxGeometry y="104" width="170" height="26" as="geometry" />
        </mxCell>
        <mxCell id="S5uqu81TDJNnixgwi5tN-83" value="Resolved: Boolean" style="text;align=left;verticalAlign=top;spacingLeft=4;spacingRight=4;overflow=hidden;rotatable=0;points=[[0,0.5],[1,0.5]];portConstraint=eastwest;rounded=0;shadow=0;html=0;" parent="S5uqu81TDJNnixgwi5tN-79" vertex="1">
          <mxGeometry y="130" width="170" height="26" as="geometry" />
        </mxCell>
        <mxCell id="S5uqu81TDJNnixgwi5tN-86" value="" style="line;html=1;strokeWidth=1;align=left;verticalAlign=middle;spacingTop=-1;spacingLeft=3;spacingRight=3;rotatable=0;labelPosition=right;points=[];portConstraint=eastwest;" parent="S5uqu81TDJNnixgwi5tN-79" vertex="1">
          <mxGeometry y="156" width="170" height="8" as="geometry" />
        </mxCell>
        <mxCell id="S5uqu81TDJNnixgwi5tN-87" value="Submit()" style="text;align=left;verticalAlign=top;spacingLeft=4;spacingRight=4;overflow=hidden;rotatable=0;points=[[0,0.5],[1,0.5]];portConstraint=eastwest;fontFamily=Consolas;fontStyle=1" parent="S5uqu81TDJNnixgwi5tN-79" vertex="1">
          <mxGeometry y="164" width="170" height="26" as="geometry" />
        </mxCell>
        <mxCell id="S5uqu81TDJNnixgwi5tN-90" value="GetResponse()" style="text;align=left;verticalAlign=top;spacingLeft=4;spacingRight=4;overflow=hidden;rotatable=0;points=[[0,0.5],[1,0.5]];portConstraint=eastwest;fontFamily=Consolas;fontStyle=1" parent="S5uqu81TDJNnixgwi5tN-79" vertex="1">
          <mxGeometry y="190" width="170" height="26" as="geometry" />
        </mxCell>
        <mxCell id="S5uqu81TDJNnixgwi5tN-91" value="" style="endArrow=none;shadow=0;strokeWidth=1;rounded=0;curved=0;endFill=1;edgeStyle=elbowEdgeStyle;elbow=vertical;startArrow=open;startFill=0;verticalAlign=bottom;exitX=0.5;exitY=0;exitDx=0;exitDy=0;" parent="1" source="S5uqu81TDJNnixgwi5tN-79" edge="1">
          <mxGeometry x="0.5" y="41" relative="1" as="geometry">
            <mxPoint x="-36" y="247.69" as="sourcePoint" />
            <mxPoint x="151" y="247.69" as="targetPoint" />
            <mxPoint x="-40" y="32" as="offset" />
            <Array as="points">
              <mxPoint x="80" y="248" />
            </Array>
          </mxGeometry>
        </mxCell>
        <mxCell id="S5uqu81TDJNnixgwi5tN-92" value="  0..*" style="resizable=0;align=left;verticalAlign=bottom;labelBackgroundColor=none;fontSize=12;" parent="S5uqu81TDJNnixgwi5tN-91" connectable="0" vertex="1">
          <mxGeometry x="-1" relative="1" as="geometry">
            <mxPoint as="offset" />
          </mxGeometry>
        </mxCell>
        <mxCell id="S5uqu81TDJNnixgwi5tN-93" value="1" style="resizable=0;align=right;verticalAlign=bottom;labelBackgroundColor=none;fontSize=12;" parent="S5uqu81TDJNnixgwi5tN-91" connectable="0" vertex="1">
          <mxGeometry x="1" relative="1" as="geometry">
            <mxPoint x="-4" as="offset" />
          </mxGeometry>
        </mxCell>
        <mxCell id="S5uqu81TDJNnixgwi5tN-94" value="&lt;font style=&quot;font-size: 11px;&quot;&gt;creates&lt;/font&gt;" style="text;html=1;resizable=0;points=[];;align=center;verticalAlign=middle;labelBackgroundColor=none;rounded=0;shadow=0;strokeWidth=1;fontSize=12;" parent="S5uqu81TDJNnixgwi5tN-91" vertex="1" connectable="0">
          <mxGeometry x="0.5" y="49" relative="1" as="geometry">
            <mxPoint x="-21" y="61" as="offset" />
          </mxGeometry>
        </mxCell>
        <mxCell id="S5uqu81TDJNnixgwi5tN-95" value="+ Ticket" style="edgeLabel;html=1;align=left;verticalAlign=middle;resizable=0;points=[];" parent="S5uqu81TDJNnixgwi5tN-91" vertex="1" connectable="0">
          <mxGeometry x="-0.8163" y="2" relative="1" as="geometry">
            <mxPoint x="-47" y="20" as="offset" />
          </mxGeometry>
        </mxCell>
        <mxCell id="S5uqu81TDJNnixgwi5tN-96" value="+ User" style="edgeLabel;html=1;align=right;verticalAlign=middle;resizable=0;points=[];" parent="S5uqu81TDJNnixgwi5tN-91" vertex="1" connectable="0">
          <mxGeometry x="0.9028" y="-1" relative="1" as="geometry">
            <mxPoint x="1" y="11" as="offset" />
          </mxGeometry>
        </mxCell>
      </root>
    </mxGraphModel>
  </diagram>
</mxfile>
